<mxfile host="app.diagrams.net" modified="2023-03-20T11:14:29.196Z" agent="5.0 (Windows NT 10.0; Win64; x64) AppleWebKit/537.36 (KHTML, like Gecko) Chrome/111.0.0.0 Safari/537.36" etag="bu25aeT_CxkYwE3ih9CX" version="21.0.8" type="github">
  <diagram name="Page-1" id="f88M550kvle-WTcgTjd2">
    <mxGraphModel dx="1154" dy="646" grid="1" gridSize="10" guides="1" tooltips="1" connect="1" arrows="1" fold="1" page="1" pageScale="1" pageWidth="850" pageHeight="1100" math="0" shadow="0">
      <root>
        <mxCell id="0" />
        <mxCell id="1" parent="0" />
        <mxCell id="BGHaj4Kj2rnMo7OcjPdP-8" value="&lt;b style=&quot;&quot;&gt;Provisioning &lt;br&gt;Type&lt;/b&gt;" style="strokeWidth=2;html=1;shape=mxgraph.flowchart.decision;whiteSpace=wrap;" parent="1" vertex="1">
          <mxGeometry x="355" y="419" width="140" height="110" as="geometry" />
        </mxCell>
        <mxCell id="BGHaj4Kj2rnMo7OcjPdP-12" value="" style="edgeStyle=orthogonalEdgeStyle;rounded=0;orthogonalLoop=1;jettySize=auto;html=1;" parent="1" source="BGHaj4Kj2rnMo7OcjPdP-10" target="BGHaj4Kj2rnMo7OcjPdP-11" edge="1">
          <mxGeometry relative="1" as="geometry" />
        </mxCell>
        <mxCell id="BGHaj4Kj2rnMo7OcjPdP-10" value="&lt;font size=&quot;1&quot; style=&quot;&quot;&gt;&lt;b style=&quot;font-size: 12px;&quot;&gt;Start&lt;/b&gt;&lt;/font&gt;" style="strokeWidth=2;html=1;shape=mxgraph.flowchart.start_1;whiteSpace=wrap;" parent="1" vertex="1">
          <mxGeometry x="375" y="100" width="100" height="40" as="geometry" />
        </mxCell>
        <mxCell id="BGHaj4Kj2rnMo7OcjPdP-13" value="" style="edgeStyle=orthogonalEdgeStyle;rounded=0;orthogonalLoop=1;jettySize=auto;html=1;" parent="1" target="BGHaj4Kj2rnMo7OcjPdP-8" edge="1">
          <mxGeometry relative="1" as="geometry">
            <mxPoint x="424.42857142857156" y="399" as="sourcePoint" />
          </mxGeometry>
        </mxCell>
        <mxCell id="ExQLO-zWQaEfEY6crAvr-3" style="edgeStyle=orthogonalEdgeStyle;rounded=0;orthogonalLoop=1;jettySize=auto;html=1;exitX=0.5;exitY=1;exitDx=0;exitDy=0;entryX=0.5;entryY=0;entryDx=0;entryDy=0;" edge="1" parent="1" source="BGHaj4Kj2rnMo7OcjPdP-11" target="ExQLO-zWQaEfEY6crAvr-1">
          <mxGeometry relative="1" as="geometry" />
        </mxCell>
        <mxCell id="BGHaj4Kj2rnMo7OcjPdP-11" value="&lt;font size=&quot;1&quot;&gt;&lt;b style=&quot;font-size: 12px;&quot;&gt;Query records created since last run from AMP&lt;/b&gt;&lt;/font&gt;" style="rounded=1;whiteSpace=wrap;html=1;absoluteArcSize=1;arcSize=0;strokeWidth=2;" parent="1" vertex="1">
          <mxGeometry x="362" y="170" width="125" height="60" as="geometry" />
        </mxCell>
        <mxCell id="BGHaj4Kj2rnMo7OcjPdP-25" style="edgeStyle=orthogonalEdgeStyle;rounded=0;orthogonalLoop=1;jettySize=auto;html=1;entryX=0.5;entryY=0;entryDx=0;entryDy=0;" parent="1" source="BGHaj4Kj2rnMo7OcjPdP-14" target="BGHaj4Kj2rnMo7OcjPdP-56" edge="1">
          <mxGeometry relative="1" as="geometry">
            <Array as="points">
              <mxPoint x="120" y="474" />
            </Array>
          </mxGeometry>
        </mxCell>
        <mxCell id="BGHaj4Kj2rnMo7OcjPdP-14" value="&lt;b&gt;source_type = project&lt;/b&gt;" style="text;html=1;strokeColor=none;fillColor=none;align=center;verticalAlign=middle;whiteSpace=wrap;rounded=0;" parent="1" vertex="1">
          <mxGeometry x="220" y="459" width="130" height="30" as="geometry" />
        </mxCell>
        <mxCell id="BGHaj4Kj2rnMo7OcjPdP-24" style="edgeStyle=orthogonalEdgeStyle;rounded=0;orthogonalLoop=1;jettySize=auto;html=1;entryX=0.5;entryY=0;entryDx=0;entryDy=0;" parent="1" source="BGHaj4Kj2rnMo7OcjPdP-15" target="BGHaj4Kj2rnMo7OcjPdP-57" edge="1">
          <mxGeometry relative="1" as="geometry">
            <mxPoint x="720" y="539" as="targetPoint" />
            <Array as="points">
              <mxPoint x="720" y="474" />
            </Array>
          </mxGeometry>
        </mxCell>
        <mxCell id="BGHaj4Kj2rnMo7OcjPdP-15" value="&lt;b&gt;source_type = dataset&lt;/b&gt;" style="text;html=1;strokeColor=none;fillColor=none;align=center;verticalAlign=middle;whiteSpace=wrap;rounded=0;" parent="1" vertex="1">
          <mxGeometry x="495" y="459" width="130" height="30" as="geometry" />
        </mxCell>
        <mxCell id="BGHaj4Kj2rnMo7OcjPdP-27" value="&lt;div class=&quot;O0&quot;&gt;&lt;b&gt;Virtual Metadata Layer&lt;/b&gt;&lt;/div&gt;" style="rounded=1;whiteSpace=wrap;html=1;absoluteArcSize=1;arcSize=0;strokeWidth=2;" parent="1" vertex="1">
          <mxGeometry x="240" y="541" width="360" height="50" as="geometry" />
        </mxCell>
        <mxCell id="BGHaj4Kj2rnMo7OcjPdP-47" value="&lt;b&gt;End&lt;/b&gt;" style="strokeWidth=2;html=1;shape=mxgraph.flowchart.terminator;whiteSpace=wrap;" parent="1" vertex="1">
          <mxGeometry x="378" y="973" width="100" height="40" as="geometry" />
        </mxCell>
        <mxCell id="BGHaj4Kj2rnMo7OcjPdP-52" value="" style="group" parent="1" vertex="1" connectable="0">
          <mxGeometry x="40" y="612" width="180" height="230" as="geometry" />
        </mxCell>
        <mxCell id="BGHaj4Kj2rnMo7OcjPdP-56" value="" style="rounded=0;whiteSpace=wrap;html=1;" parent="BGHaj4Kj2rnMo7OcjPdP-52" vertex="1">
          <mxGeometry x="-11" y="-14" width="180" height="240" as="geometry" />
        </mxCell>
        <mxCell id="BGHaj4Kj2rnMo7OcjPdP-17" value="&lt;div class=&quot;O0&quot;&gt;&lt;b&gt;Lookup using Project_Template&lt;/b&gt;&lt;/div&gt;" style="rounded=1;whiteSpace=wrap;html=1;absoluteArcSize=1;arcSize=0;strokeWidth=2;" parent="BGHaj4Kj2rnMo7OcjPdP-52" vertex="1">
          <mxGeometry width="160" height="50" as="geometry" />
        </mxCell>
        <mxCell id="BGHaj4Kj2rnMo7OcjPdP-18" value="&lt;div class=&quot;O0&quot;&gt;&lt;b&gt;Lookup using View_Template&lt;/b&gt;&lt;/div&gt;" style="rounded=1;whiteSpace=wrap;html=1;absoluteArcSize=1;arcSize=0;strokeWidth=2;" parent="BGHaj4Kj2rnMo7OcjPdP-52" vertex="1">
          <mxGeometry y="80" width="160" height="50" as="geometry" />
        </mxCell>
        <mxCell id="BGHaj4Kj2rnMo7OcjPdP-19" value="&lt;div class=&quot;O0&quot;&gt;&lt;b&gt;Lookup using Column_Template&lt;/b&gt;&lt;/div&gt;" style="rounded=1;whiteSpace=wrap;html=1;absoluteArcSize=1;arcSize=0;strokeWidth=2;" parent="BGHaj4Kj2rnMo7OcjPdP-52" vertex="1">
          <mxGeometry y="160" width="160" height="50" as="geometry" />
        </mxCell>
        <mxCell id="BGHaj4Kj2rnMo7OcjPdP-55" value="" style="group" parent="1" vertex="1" connectable="0">
          <mxGeometry x="640" y="620" width="180" height="310" as="geometry" />
        </mxCell>
        <mxCell id="BGHaj4Kj2rnMo7OcjPdP-57" value="" style="rounded=0;whiteSpace=wrap;html=1;" parent="BGHaj4Kj2rnMo7OcjPdP-55" vertex="1">
          <mxGeometry x="-20" y="-20" width="200" height="330" as="geometry" />
        </mxCell>
        <mxCell id="BGHaj4Kj2rnMo7OcjPdP-20" value="&lt;div class=&quot;O0&quot;&gt;&lt;b&gt;Lookup using Project_Template_V2&lt;/b&gt;&lt;/div&gt;" style="rounded=1;whiteSpace=wrap;html=1;absoluteArcSize=1;arcSize=0;strokeWidth=2;" parent="BGHaj4Kj2rnMo7OcjPdP-55" vertex="1">
          <mxGeometry width="160" height="50" as="geometry" />
        </mxCell>
        <mxCell id="BGHaj4Kj2rnMo7OcjPdP-21" value="&lt;div class=&quot;O0&quot;&gt;&lt;b&gt;Lookup using View_Template_V2&lt;/b&gt;&lt;/div&gt;" style="rounded=1;whiteSpace=wrap;html=1;absoluteArcSize=1;arcSize=0;strokeWidth=2;" parent="BGHaj4Kj2rnMo7OcjPdP-55" vertex="1">
          <mxGeometry y="80" width="160" height="50" as="geometry" />
        </mxCell>
        <mxCell id="BGHaj4Kj2rnMo7OcjPdP-22" value="&lt;div class=&quot;O0&quot;&gt;&lt;b&gt;Lookup using Column_Template_V2&lt;/b&gt;&lt;/div&gt;" style="rounded=1;whiteSpace=wrap;html=1;absoluteArcSize=1;arcSize=0;strokeWidth=2;" parent="BGHaj4Kj2rnMo7OcjPdP-55" vertex="1">
          <mxGeometry y="160" width="160" height="50" as="geometry" />
        </mxCell>
        <mxCell id="BGHaj4Kj2rnMo7OcjPdP-23" value="&lt;div class=&quot;O0&quot;&gt;&lt;b&gt;Lookup using Dataset_Template&lt;/b&gt;&lt;/div&gt;" style="rounded=1;whiteSpace=wrap;html=1;absoluteArcSize=1;arcSize=0;strokeWidth=2;" parent="BGHaj4Kj2rnMo7OcjPdP-55" vertex="1">
          <mxGeometry y="240" width="160" height="50" as="geometry" />
        </mxCell>
        <mxCell id="ExQLO-zWQaEfEY6crAvr-5" style="edgeStyle=orthogonalEdgeStyle;rounded=0;orthogonalLoop=1;jettySize=auto;html=1;exitX=0.5;exitY=1;exitDx=0;exitDy=0;" edge="1" parent="1">
          <mxGeometry relative="1" as="geometry">
            <mxPoint x="421.5" y="315" as="sourcePoint" />
            <mxPoint x="422.5714285714289" y="336.9999999999999" as="targetPoint" />
          </mxGeometry>
        </mxCell>
        <mxCell id="ExQLO-zWQaEfEY6crAvr-1" value="&lt;font size=&quot;1&quot;&gt;&lt;b style=&quot;font-size: 12px;&quot;&gt;Load data from AMP in staging&lt;/b&gt;&lt;/font&gt;" style="rounded=1;whiteSpace=wrap;html=1;absoluteArcSize=1;arcSize=0;strokeWidth=2;" vertex="1" parent="1">
          <mxGeometry x="363" y="255" width="125" height="60" as="geometry" />
        </mxCell>
        <mxCell id="ExQLO-zWQaEfEY6crAvr-2" value="&lt;font size=&quot;1&quot;&gt;&lt;b style=&quot;font-size: 12px;&quot;&gt;Lookup Metadata from Metadata DataProduct&lt;/b&gt;&lt;/font&gt;" style="rounded=1;whiteSpace=wrap;html=1;absoluteArcSize=1;arcSize=0;strokeWidth=2;" vertex="1" parent="1">
          <mxGeometry x="364" y="337" width="125" height="60" as="geometry" />
        </mxCell>
      </root>
    </mxGraphModel>
  </diagram>
</mxfile>
